<svg xmlns="http://www.w3.org/2000/svg" viewBox="0 0 26.612 6.636" height="25.081" width="100.581" xmlns:v="https://vecta.io/nano"><path d="M2.36 0v4.646L1.006 0H0v6.625h.88V1.842l1.397 4.784h.963V0zm2.944 5.853V3.588h1.524v-.773H5.304V.773h1.84V0H4.34v6.625h2.88v-.773zM9.916 3.24L11.196 0H10.16l-.773 2.38L8.625 0h-1.06l1.302 3.24L7.47 6.625h1.027l.9-2.52.9 2.52h1.058zM14.605 0H11.43v.773h1.1v5.853h.952V.773h1.1zm2.8 2.985c0 .254-.063.317-.317.317h-.93V.773h.93c.254 0 .317.053.317.307zM15.214 0v6.625h.952v-2.56h1.217c.688 0 .984-.317.984-.93v-2.2c0-.603-.296-.93-.984-.93zm6.37 0v4.646L20.23 0h-1.005v6.625h.878V1.842L21.5 6.625h.963V0zm5.03 1.937V.932c0-.603-.307-.93-.984-.93h-1.132c-.677 0-.984.328-.984.93v4.762c0 .614.307.942.984.942h1.132c.677 0 .984-.328.984-.942V3.218H25.12v.74h.53v1.62c0 .254-.064.307-.317.307h-.54c-.254 0-.317-.053-.317-.307V1.06c0-.254.064-.307.317-.307h.54c.254 0 .317.053.317.307v.878z"/></svg>